# xmcd
#
# Track frame offsets:
#	150
#	7480
#	12973
#	23549
#	32945
#	38659
#	46372
#	53598
#	60094
#	70133
#	80567
#	84439
#	93798
#	103800
#	107626
#	109772
#	118100
#	121111
#	127530
#	132203
#	138030
#	144810
#	150171
#	166097
#	175911
#	181179
#	185449
#	189047
#	193157
#	200930
#	212799
#	222166
#	232095
#	245836
#	256230
#	263657
#	271393
#	281313
#
# Disc length: 3878 seconds
#
# Revision: 0
# Processed by: cddbd v1.5.2PL0 Copyright (c) Steve Scherf et al.
# Submitted via: EasyCDDAExtractor 2010.6.0.0
#
DISCID=fe0f2426
DTITLE=Sumner McKane - In the Blood
DYEAR=2011
DGENRE=Post Rock
TTITLE0=Introduction
TTITLE1=Fannie Hardy Eckstorm
TTITLE2=1604: Captain George Weymouth lands at Monhegan Island
TTITLE3=The king's broad arrow policy
TTITLE4=When did you go into the woods
TTITLE5=Who were they
TTITLE6=We had a father who taught us
TTITLE7=Where'd they come from
TTITLE8=Rob Golding talks about sleeping in camp
TTITLE9=3 winters, I was in that same camp
TTITLE10=Lice
TTITLE11=Beans
TTITLE12=Really good singers
TTITLE13=He'd peg er' right down (Saturday nights)
TTITLE14=Sundays
TTITLE15=Hired for a seasons work
TTITLE16=The ice wagon
TTITLE17=A simple yet regimented life
TTITLE18=Stars when we went out, stars when we came in
TTITLE19=The cookee brought the dinners out
TTITLE20=Lasted nearly 100 years
TTITLE21=It was a way of life in them days
TTITLE22=Horses and manpower
TTITLE23=The spring drive
TTITLE24=Left a man with the dam
TTITLE25=Where a man learned
TTITLE26=Rattlin' good men
TTITLE27=Creative ingenuity
TTITLE28=The headworks
TTITLE29=I waded water. I couldn't go on logs
TTITLE30=Well that was rugged work
TTITLE31=Pretty sad story to take back to his wife
TTITLE32=Thomas McCleod talks about fights, Christmas time and booze
TTITLE33=The reputation that lumberjacks earned
TTITLE34=Once they got the rum out of them, they were some rugged
TTITLE35=Lumber camps were scattered throughout the Maine woods
TTITLE36=They were isolated
TTITLE37=Yes dangerous, course it's dangerous
EXTD=
EXTT0=
EXTT1=
EXTT2=
EXTT3=
EXTT4=
EXTT5=
EXTT6=
EXTT7=
EXTT8=
EXTT9=
EXTT10=
EXTT11=
EXTT12=
EXTT13=
EXTT14=
EXTT15=
EXTT16=
EXTT17=
EXTT18=
EXTT19=
EXTT20=
EXTT21=
EXTT22=
EXTT23=
EXTT24=
EXTT25=
EXTT26=
EXTT27=
EXTT28=
EXTT29=
EXTT30=
EXTT31=
EXTT32=
EXTT33=
EXTT34=
EXTT35=
EXTT36=
EXTT37=
PLAYORDER=
